<!DOCTYPE svg PUBLIC "-//W3C//DTD SVG 1.1//EN" "http://www.w3.org/Graphics/SVG/1.1/DTD/svg11.dtd">
<!-- Uploaded to: SVG Repo, www.svgrepo.com, Transformed by: SVG Repo Mixer Tools -->
<svg version="1.1" id="Icons" xmlns="http://www.w3.org/2000/svg" xmlns:xlink="http://www.w3.org/1999/xlink" viewBox="0 0 32 32" xml:space="preserve" width="800px" height="800px" fill="#ffffff" stroke="#ffffff">
<g id="SVGRepo_bgCarrier" stroke-width="0"/>
<g id="SVGRepo_tracerCarrier" stroke-linecap="round" stroke-linejoin="round"/>
<g id="SVGRepo_iconCarrier"> <style type="text/css"> .st0{fill:none;stroke:#ffffff;stroke-width:2;stroke-linecap:round;stroke-linejoin:round;stroke-miterlimit:10;} </style> <path class="st0" d="M23,24H9c-4.4,0-8-3.6-8-8v0c0-4.4,3.6-8,8-8h14c4.4,0,8,3.6,8,8v0C31,20.4,27.4,24,23,24z"/> <rect x="11" y="11" class="st0" width="10" height="10"/> <line class="st0" x1="26" y1="14" x2="26" y2="14"/> <line class="st0" x1="24" y1="16" x2="24" y2="16"/> <line class="st0" x1="28" y1="16" x2="28" y2="16"/> <line class="st0" x1="26" y1="18" x2="26" y2="18"/> <line class="st0" x1="6" y1="18" x2="6" y2="14"/> <line class="st0" x1="8" y1="16" x2="4" y2="16"/> </g>
</svg>